<svg width="424.4" height="95.5" viewBox="0 0 424.4 95.5" xmlns="http://www.w3.org/2000/svg"><g id="svgGroup" stroke-linecap="round" fill-rule="evenodd" font-size="9pt" stroke="#000000" stroke-width="0.25mm" fill="#ffffff" style="stroke:#000000;stroke-width:0.25mm;fill:#ffffff"><path class="logo-path" d="M 28.3 48.15 L 16.25 43.15 A 31.87 31.87 0 0 1 9.955 39.672 A 26.529 26.529 0 0 1 6 36.2 Q 1.95 31.85 1.95 24.7 A 20.282 20.282 0 0 1 2.867 18.504 A 17.618 17.618 0 0 1 5.2 13.775 A 21.59 21.59 0 0 1 12.959 6.985 A 25.775 25.775 0 0 1 13.975 6.475 A 27.319 27.319 0 0 1 23.361 3.978 A 33.196 33.196 0 0 1 26.3 3.85 A 49.008 49.008 0 0 1 36.054 4.793 A 43.173 43.173 0 0 1 39.625 5.675 Q 44.127 6.995 47.412 8.432 A 36.298 36.298 0 0 1 49.75 9.55 Q 49.55 13 48.125 16.175 A 16.761 16.761 0 0 1 45.856 19.901 A 14.861 14.861 0 0 1 44.35 21.5 Q 40.55 19.7 35.45 18.175 A 41.074 41.074 0 0 0 31.334 17.16 Q 28.641 16.65 26.3 16.65 A 15.117 15.117 0 0 0 24.133 16.794 Q 21.501 17.177 20.175 18.575 Q 18.697 20.134 18.416 21.775 A 4.583 4.583 0 0 0 18.35 22.55 Q 18.35 24.45 19.625 25.95 A 6.514 6.514 0 0 0 20.62 26.878 Q 21.734 27.736 23.539 28.56 A 26.872 26.872 0 0 0 24.2 28.85 L 36.5 33.9 A 32.552 32.552 0 0 1 41.237 36.3 A 25.8 25.8 0 0 1 44.725 38.875 A 21.605 21.605 0 0 1 48.455 43.103 A 19.142 19.142 0 0 1 49.85 45.575 Q 51.6 49.3 51.6 53.65 A 21.473 21.473 0 0 1 50.31 61.156 A 19.969 19.969 0 0 1 48.675 64.55 A 19.01 19.01 0 0 1 42.815 70.582 A 24.546 24.546 0 0 1 39.925 72.225 Q 34.983 74.622 27.936 74.985 A 50.234 50.234 0 0 1 25.35 75.05 A 44.351 44.351 0 0 1 17.637 74.345 A 56.108 56.108 0 0 1 12.4 73.15 A 45.385 45.385 0 0 1 2.218 68.992 A 41.393 41.393 0 0 1 0 67.65 A 16.658 16.658 0 0 1 1.508 62.105 A 19.667 19.667 0 0 1 2.075 60.975 A 22.104 22.104 0 0 1 3.854 58.185 A 16.244 16.244 0 0 1 6.15 55.7 A 57.457 57.457 0 0 0 11.738 58.571 A 71.881 71.881 0 0 0 15.75 60.225 Q 21.1 62.25 26.45 62.25 A 14.185 14.185 0 0 0 28.703 62.084 Q 29.854 61.898 30.763 61.505 A 5.528 5.528 0 0 0 32.7 60.15 A 8.143 8.143 0 0 0 33.894 58.464 A 6.002 6.002 0 0 0 34.6 55.65 Q 34.6 54.421 33.981 52.912 A 13.076 13.076 0 0 0 33.55 51.975 A 4.869 4.869 0 0 0 32.538 50.664 Q 31.45 49.629 29.493 48.684 A 23.798 23.798 0 0 0 28.3 48.15 Z M 187.85 60.25 L 201.05 5.3 Q 202.8 4.9 204.625 4.825 A 93.305 93.305 0 0 1 206.381 4.769 A 72.96 72.96 0 0 1 208 4.75 A 24.005 24.005 0 0 1 209.181 4.782 Q 209.713 4.808 210.312 4.857 A 51.123 51.123 0 0 1 211.575 4.975 A 21.013 21.013 0 0 1 213.552 5.275 A 15.405 15.405 0 0 1 215.35 5.75 L 216 6.65 L 197.25 73.6 Q 194.587 73.891 191.268 74.041 A 131.258 131.258 0 0 1 191.05 74.05 A 158.94 158.94 0 0 1 186.472 74.186 A 135.038 135.038 0 0 1 184.5 74.2 Q 181.547 74.2 179.434 73.565 A 9.288 9.288 0 0 1 177.45 72.725 Q 175.478 71.585 174.313 68.784 A 15.897 15.897 0 0 1 173.7 67 L 157.05 6.75 Q 159.25 5.75 161.675 5.1 Q 164.1 4.45 166.7 4.45 A 10.815 10.815 0 0 1 168.952 4.671 Q 170.936 5.093 172.25 6.325 A 8.085 8.085 0 0 1 173.661 8.126 Q 174.191 9.023 174.62 10.159 A 20.267 20.267 0 0 1 175.3 12.35 L 183 40.8 Q 183.8 43.75 184.475 46.825 Q 185.15 49.9 185.75 52.975 Q 186.35 56.05 186.8 59 A 5.073 5.073 0 0 0 186.876 59.344 Q 187.007 59.847 187.196 60.021 A 0.466 0.466 0 0 0 187.2 60.025 A 0.86 0.86 0 0 0 187.626 60.23 A 1.214 1.214 0 0 0 187.85 60.25 Z M 128.6 75.75 L 129 74.25 Q 125.741 74.25 123.356 73.36 A 10.621 10.621 0 0 1 122.25 72.875 A 6.655 6.655 0 0 1 119.273 69.801 A 9.817 9.817 0 0 1 118.6 68 L 106.95 24.9 Q 109.35 23.8 112 23.3 A 34.045 34.045 0 0 1 113.889 22.996 Q 115.381 22.8 116.6 22.8 A 9.376 9.376 0 0 1 118.75 23.034 A 6.756 6.756 0 0 1 121.325 24.225 Q 123.124 25.592 124.071 29.192 A 20.576 20.576 0 0 1 124.15 29.5 L 128.85 48.75 Q 129.159 49.885 129.445 51.409 A 59.478 59.478 0 0 1 129.7 52.875 Q 130.1 55.35 130.475 57.775 A 195.151 195.151 0 0 1 130.652 58.939 Q 130.9 60.613 131.05 61.85 Q 131.13 62.412 131.63 62.523 A 1.25 1.25 0 0 0 131.9 62.55 L 140.6 23.75 A 14.191 14.191 0 0 1 141.819 23.482 Q 142.655 23.335 143.625 23.25 Q 145.35 23.1 146.75 23.1 Q 148.8 23.1 150.9 23.325 Q 153 23.55 155.1 24.25 L 155.7 25.25 L 143.35 72.25 Q 141.55 79.05 138.8 84.3 A 21.57 21.57 0 0 1 133.827 90.672 A 20.428 20.428 0 0 1 131.325 92.525 A 17.692 17.692 0 0 1 126.412 94.611 Q 124.164 95.208 121.5 95.404 A 36.783 36.783 0 0 1 118.8 95.5 Q 115.8 95.5 112.25 94.85 A 58.098 58.098 0 0 1 110.178 94.434 Q 108.2 93.997 106.84 93.519 A 16.326 16.326 0 0 1 106.65 93.45 A 12.342 12.342 0 0 1 106.597 92.291 Q 106.597 90.087 107.325 87.45 A 19.49 19.49 0 0 1 108.035 85.33 Q 108.783 83.482 109.8 82.3 A 30.695 30.695 0 0 0 111.063 82.663 Q 111.676 82.826 112.379 82.991 A 68.831 68.831 0 0 0 113.875 83.325 Q 116.35 83.85 118.8 83.85 A 11.342 11.342 0 0 0 121.053 83.636 A 8.723 8.723 0 0 0 123.275 82.875 Q 125.2 81.9 126.525 80.075 A 13.193 13.193 0 0 0 127.987 77.46 A 16.615 16.615 0 0 0 128.6 75.75 Z M 268.1 55.75 L 262.55 53.75 A 29.122 29.122 0 0 1 257.292 51.192 A 26.341 26.341 0 0 1 256.2 50.475 Q 253.35 48.5 251.7 45.625 A 12.165 12.165 0 0 1 250.302 41.704 A 16.572 16.572 0 0 1 250.05 38.75 A 18.183 18.183 0 0 1 250.577 34.277 A 14.369 14.369 0 0 1 252.45 29.95 A 15.436 15.436 0 0 1 258.143 24.758 A 18.892 18.892 0 0 1 259.2 24.225 Q 263.55 22.2 269.4 22.2 A 38.75 38.75 0 0 1 276.144 22.815 A 46.76 46.76 0 0 1 279.35 23.5 A 62.292 62.292 0 0 1 282.836 24.473 Q 284.457 24.981 285.825 25.527 A 27.907 27.907 0 0 1 287.8 26.4 Q 287.86 27.486 287.684 28.718 A 16.707 16.707 0 0 1 287.35 30.4 A 16.967 16.967 0 0 1 286.143 33.744 A 15.463 15.463 0 0 1 285.775 34.45 A 11.798 11.798 0 0 1 284.975 35.711 Q 284.281 36.657 283.5 37.25 Q 280.4 35.85 276.75 34.675 A 24.045 24.045 0 0 0 271.22 33.565 A 21.721 21.721 0 0 0 269.55 33.5 A 6.75 6.75 0 0 0 268.393 33.593 Q 267.222 33.797 266.5 34.45 A 3.373 3.373 0 0 0 265.806 35.306 A 2.816 2.816 0 0 0 265.45 36.7 Q 265.45 38 266.35 38.9 Q 267.25 39.8 269.25 40.5 L 275.45 42.7 A 26.468 26.468 0 0 1 281.406 45.631 A 22.529 22.529 0 0 1 284.95 48.55 A 12.918 12.918 0 0 1 288.466 55.491 A 18.451 18.451 0 0 1 288.75 58.8 Q 288.75 66.25 283.025 70.65 A 19.454 19.454 0 0 1 276.686 73.808 Q 272.542 75.05 267.15 75.05 Q 261.8 75.05 256.975 73.6 Q 252.155 72.152 248.607 70.154 A 29.712 29.712 0 0 1 248.6 70.15 A 13.027 13.027 0 0 1 248.912 67.848 Q 249.258 66.294 249.975 64.55 A 20.048 20.048 0 0 1 251.066 62.286 Q 251.947 60.733 253 59.65 Q 256.25 61.35 259.775 62.575 Q 263.3 63.8 266.8 63.8 A 13.456 13.456 0 0 0 268.396 63.712 Q 270.069 63.512 271.092 62.855 A 3.961 3.961 0 0 0 271.175 62.8 A 4.024 4.024 0 0 0 271.969 62.108 A 2.686 2.686 0 0 0 272.65 60.3 Q 272.65 58.85 271.575 57.725 A 5.417 5.417 0 0 0 270.679 56.984 Q 269.739 56.351 268.298 55.822 A 17.961 17.961 0 0 0 268.1 55.75 Z M 75.45 9.4 L 75.45 73.6 A 27.28 27.28 0 0 1 73.706 73.857 A 36.302 36.302 0 0 1 71.775 74.025 Q 69.75 74.15 67.7 74.15 Q 65.75 74.15 63.825 74.025 A 36.409 36.409 0 0 1 61.036 73.739 A 32.166 32.166 0 0 1 60.15 73.6 L 60.15 0.7 L 60.85 0 L 66.95 0 A 15.86 15.86 0 0 1 69.267 0.157 Q 72.082 0.574 73.498 2.099 A 4.955 4.955 0 0 1 73.5 2.1 A 5.886 5.886 0 0 1 74.63 3.96 Q 75.32 5.701 75.429 8.366 A 25.278 25.278 0 0 1 75.45 9.4 Z M 421.9 40.6 L 421.9 61.1 A 27.395 27.395 0 0 0 422.16 64.934 A 23.779 23.779 0 0 0 422.45 66.575 Q 423 69.15 424.4 71.05 Q 422.7 72.45 420.15 73.425 A 15.015 15.015 0 0 1 415.427 74.383 A 17.388 17.388 0 0 1 414.65 74.4 A 13.86 13.86 0 0 1 412.354 74.224 Q 411.133 74.018 410.185 73.572 A 5.388 5.388 0 0 1 408.1 71.9 Q 406.693 69.999 406.356 66.853 A 19.779 19.779 0 0 1 406.25 64.75 L 406.25 43.45 Q 406.25 40.05 405.375 38.425 Q 404.58 36.949 402.445 36.814 A 7.034 7.034 0 0 0 402 36.8 Q 400.795 36.8 399.303 37.314 A 14.296 14.296 0 0 0 398.425 37.65 A 11.858 11.858 0 0 0 396.4 38.757 Q 395.514 39.353 394.628 40.145 A 19.779 19.779 0 0 0 394.375 40.375 A 14.164 14.164 0 0 0 392.469 42.569 Q 391.575 43.825 390.8 45.4 L 390.8 31.7 Q 394.35 28.3 398.475 25.55 Q 402.6 22.8 407.9 22.8 A 15.37 15.37 0 0 1 411.483 23.198 A 11.335 11.335 0 0 1 415.6 25.075 A 13.454 13.454 0 0 1 419.528 29.683 A 16.922 16.922 0 0 1 420.3 31.35 A 21.759 21.759 0 0 1 421.591 36.227 A 29.566 29.566 0 0 1 421.9 40.6 Z M 369.95 48.65 Q 369.95 56.65 367.3 62.6 A 21.47 21.47 0 0 1 363.167 68.832 A 19.657 19.657 0 0 1 359.525 71.8 Q 354.4 75.05 346.85 75.05 A 29.213 29.213 0 0 1 341.079 74.51 Q 337.403 73.769 334.486 72.014 A 18.323 18.323 0 0 1 334.1 71.775 A 20.086 20.086 0 0 1 326.599 63.102 A 24.371 24.371 0 0 1 326.35 62.55 A 30.18 30.18 0 0 1 324.252 55.251 A 41.387 41.387 0 0 1 323.75 48.65 Q 323.75 40.883 326.194 35.094 A 25.947 25.947 0 0 1 326.375 34.675 A 21.153 21.153 0 0 1 330.841 28.106 A 19.883 19.883 0 0 1 334.15 25.475 Q 339.296 22.203 346.838 22.2 A 37.266 37.266 0 0 1 346.85 22.2 A 28.998 28.998 0 0 1 352.621 22.745 Q 356.542 23.541 359.6 25.5 A 20.304 20.304 0 0 1 367.185 34.358 A 24.458 24.458 0 0 1 367.35 34.725 A 29.821 29.821 0 0 1 369.416 41.826 Q 369.948 45.013 369.95 48.622 A 47.707 47.707 0 0 1 369.95 48.65 Z M 240.8 35.25 L 240.8 73.6 A 27.06 27.06 0 0 1 239.05 73.857 A 36.674 36.674 0 0 1 237.1 74.025 Q 235.05 74.15 233 74.15 A 66.176 66.176 0 0 1 229.492 74.055 A 72.828 72.828 0 0 1 228.975 74.025 A 39.099 39.099 0 0 1 226.743 73.829 A 30.844 30.844 0 0 1 225.15 73.6 L 225.15 40.5 A 10.12 10.12 0 0 0 225.006 38.745 Q 224.766 37.382 224.125 36.35 Q 223.1 34.7 220.45 34.7 L 218.95 34.7 Q 218.3 32.15 218.3 29.4 A 25.54 25.54 0 0 1 218.359 27.707 A 31.093 31.093 0 0 1 218.45 26.625 Q 218.6 25.15 218.95 23.8 Q 221.25 23.55 223.675 23.425 A 122.719 122.719 0 0 1 224.839 23.371 Q 226.506 23.301 227.74 23.3 A 29.489 29.489 0 0 1 227.75 23.3 L 229.9 23.3 Q 234.95 23.3 237.875 26.525 Q 240.711 29.652 240.797 34.917 A 20.298 20.298 0 0 1 240.8 35.25 Z M 314.9 35.25 L 314.9 73.6 A 27.06 27.06 0 0 1 313.15 73.857 A 36.674 36.674 0 0 1 311.2 74.025 Q 309.15 74.15 307.1 74.15 A 66.176 66.176 0 0 1 303.592 74.055 A 72.828 72.828 0 0 1 303.075 74.025 A 39.099 39.099 0 0 1 300.843 73.829 A 30.844 30.844 0 0 1 299.25 73.6 L 299.25 40.5 A 10.12 10.12 0 0 0 299.106 38.745 Q 298.866 37.382 298.225 36.35 Q 297.2 34.7 294.55 34.7 L 293.05 34.7 Q 292.4 32.15 292.4 29.4 A 25.54 25.54 0 0 1 292.459 27.707 A 31.093 31.093 0 0 1 292.55 26.625 Q 292.7 25.15 293.05 23.8 Q 295.35 23.55 297.775 23.425 A 122.719 122.719 0 0 1 298.939 23.371 Q 300.606 23.301 301.84 23.3 A 29.489 29.489 0 0 1 301.85 23.3 L 304 23.3 Q 309.05 23.3 311.975 26.525 Q 314.811 29.652 314.897 34.917 A 20.298 20.298 0 0 1 314.9 35.25 Z M 379.6 23 L 385.5 23 A 10.427 10.427 0 0 1 388.272 23.347 A 7.221 7.221 0 0 1 392.275 26.075 A 10.802 10.802 0 0 1 393.972 29.649 Q 394.388 31.145 394.504 32.919 A 21.8 21.8 0 0 1 394.55 34.35 L 394.55 73.6 A 26.85 26.85 0 0 1 392.794 73.857 Q 391.863 73.963 390.825 74.025 Q 388.75 74.15 386.75 74.15 A 66.176 66.176 0 0 1 383.242 74.055 A 72.828 72.828 0 0 1 382.725 74.025 A 39.099 39.099 0 0 1 380.493 73.829 A 30.844 30.844 0 0 1 378.9 73.6 L 378.9 23.7 L 379.6 23 Z M 98.5 53.7 L 100.95 61 A 66.771 66.771 0 0 0 101.559 62.796 Q 102.224 64.66 102.81 65.874 A 13.438 13.438 0 0 0 103.2 66.625 Q 104.2 68.4 105.75 69.5 A 14.447 14.447 0 0 1 102.481 72.232 A 17.499 17.499 0 0 1 101.1 73 Q 98.3 74.4 95.25 74.4 A 11.168 11.168 0 0 1 93.364 74.252 Q 91.39 73.913 90.225 72.8 Q 88.642 71.288 87.438 67.854 A 27.728 27.728 0 0 1 87.3 67.45 L 84.35 58.8 A 18.566 18.566 0 0 0 83.806 57.338 Q 83.205 55.921 82.517 55.133 A 3.615 3.615 0 0 0 81.95 54.6 A 4.958 4.958 0 0 0 79.989 53.741 A 7.004 7.004 0 0 0 78.55 53.6 A 53.167 53.167 0 0 0 77.015 53.621 Q 76.18 53.646 75.446 53.697 A 28.323 28.323 0 0 0 74.8 53.75 Q 73.2 53.9 71.55 54.15 L 67.5 54.65 L 67.5 43.9 L 83.2 43.9 A 21.848 21.848 0 0 1 88.002 44.406 A 17.012 17.012 0 0 1 92.7 46.2 A 11.987 11.987 0 0 1 97.334 51.005 A 16.737 16.737 0 0 1 98.5 53.7 Z M 103.1 24.3 L 95.4 39.2 Q 93.1 43.6 88.825 45.825 Q 84.55 48.05 78.05 48.05 L 69.4 48.05 L 69.4 40.9 L 77 40.8 Q 78.074 40.8 78.647 40.467 A 1.608 1.608 0 0 0 78.675 40.45 A 2.081 2.081 0 0 0 79.055 40.145 Q 79.447 39.756 79.85 39.05 L 85.05 29 A 13.565 13.565 0 0 1 86.378 26.843 Q 87.334 25.587 88.507 24.763 A 8.555 8.555 0 0 1 88.525 24.75 A 7.78 7.78 0 0 1 91.347 23.544 Q 92.458 23.3 93.75 23.3 Q 96.25 23.3 98.3 23.35 Q 100.35 23.4 102.5 23.5 L 103.1 24.3 Z M 339.8 48.65 A 61.572 61.572 0 0 0 339.919 52.563 A 46.144 46.144 0 0 0 340.275 56.1 A 15.263 15.263 0 0 0 340.765 58.375 Q 341.123 59.557 341.661 60.501 A 7.963 7.963 0 0 0 342.275 61.425 A 4.91 4.91 0 0 0 345.235 63.24 A 7.671 7.671 0 0 0 346.85 63.4 A 7.711 7.711 0 0 0 348.631 63.207 Q 349.972 62.889 350.887 62.046 A 4.739 4.739 0 0 0 351.45 61.425 A 8.806 8.806 0 0 0 352.615 59.312 Q 353.169 57.906 353.425 56.1 A 46.144 46.144 0 0 0 353.781 52.563 A 61.572 61.572 0 0 0 353.9 48.65 A 62.591 62.591 0 0 0 353.781 44.7 A 46.064 46.064 0 0 0 353.425 41.15 A 15.561 15.561 0 0 0 352.938 38.875 Q 352.399 37.075 351.45 35.825 A 4.805 4.805 0 0 0 348.641 34.046 A 7.7 7.7 0 0 0 346.85 33.85 A 7.457 7.457 0 0 0 345.018 34.062 A 4.863 4.863 0 0 0 342.275 35.825 Q 340.978 37.505 340.44 40.18 A 17.142 17.142 0 0 0 340.275 41.15 A 46.064 46.064 0 0 0 339.919 44.7 A 62.591 62.591 0 0 0 339.8 48.65 Z M 222.305 7.573 A 14.499 14.499 0 0 0 222.15 9.65 A 13.418 13.418 0 0 0 222.207 10.87 A 16.978 16.978 0 0 0 222.45 12.55 A 17.133 17.133 0 0 0 222.571 13.124 A 15.1 15.1 0 0 0 223.3 15.45 A 4.89 4.89 0 0 0 223.353 15.482 Q 224.133 15.943 225.354 16.283 A 16.889 16.889 0 0 0 226.6 16.575 A 23.828 23.828 0 0 0 227.666 16.761 A 20.665 20.665 0 0 0 230.75 17 Q 232.8 17 234.925 16.55 Q 237.05 16.1 238.2 15.45 A 14.142 14.142 0 0 0 238.429 14.85 A 15.858 15.858 0 0 0 239.05 12.55 A 17.625 17.625 0 0 0 239.244 11.324 A 13.913 13.913 0 0 0 239.35 9.65 A 13.242 13.242 0 0 0 239.273 8.259 A 18.155 18.155 0 0 0 239.05 6.775 A 18.272 18.272 0 0 0 238.992 6.481 A 16.472 16.472 0 0 0 238.2 3.8 A 5.468 5.468 0 0 0 238.134 3.763 Q 236.989 3.137 234.925 2.7 A 22.058 22.058 0 0 0 234.66 2.646 A 20.003 20.003 0 0 0 230.75 2.25 Q 228.75 2.25 226.675 2.7 A 21.995 21.995 0 0 0 225.671 2.942 Q 224.974 3.127 224.384 3.341 A 10.123 10.123 0 0 0 223.3 3.8 Q 222.75 5.2 222.45 6.725 A 17.034 17.034 0 0 0 222.305 7.573 Z M 296.405 7.573 A 14.499 14.499 0 0 0 296.25 9.65 A 13.418 13.418 0 0 0 296.307 10.87 A 16.978 16.978 0 0 0 296.55 12.55 A 17.133 17.133 0 0 0 296.671 13.124 A 15.1 15.1 0 0 0 297.4 15.45 A 4.89 4.89 0 0 0 297.453 15.482 Q 298.233 15.943 299.454 16.283 A 16.889 16.889 0 0 0 300.7 16.575 A 23.828 23.828 0 0 0 301.766 16.761 A 20.665 20.665 0 0 0 304.85 17 Q 306.9 17 309.025 16.55 Q 311.15 16.1 312.3 15.45 A 14.142 14.142 0 0 0 312.529 14.85 A 15.858 15.858 0 0 0 313.15 12.55 A 17.625 17.625 0 0 0 313.344 11.324 A 13.913 13.913 0 0 0 313.45 9.65 A 13.242 13.242 0 0 0 313.373 8.259 A 18.155 18.155 0 0 0 313.15 6.775 A 18.272 18.272 0 0 0 313.092 6.481 A 16.472 16.472 0 0 0 312.3 3.8 A 5.468 5.468 0 0 0 312.234 3.763 Q 311.089 3.137 309.025 2.7 A 22.058 22.058 0 0 0 308.76 2.646 A 20.003 20.003 0 0 0 304.85 2.25 Q 302.85 2.25 300.775 2.7 A 21.995 21.995 0 0 0 299.771 2.942 Q 299.074 3.127 298.484 3.341 A 10.123 10.123 0 0 0 297.4 3.8 Q 296.85 5.2 296.55 6.725 A 17.034 17.034 0 0 0 296.405 7.573 Z" vector-effect="non-scaling-stroke"/></g></svg>